<svg version="1.1" xmlns="http://www.w3.org/2000/svg" viewBox="-2420.5360252272076 -1665.1519500732422 9486.135675800937 2505.983953857422"><desc>Created with Snap</desc><defs></defs><g><g transform="matrix(21.041,0,0,21.041,-2218.5409,-1463.1568)"><g><path d="M78.4,66.5c-5.5,4.8-9.9,15.2-9.9,15.2s-6.9-11.4-12.9-15.3c-9.5-6.1-13.6-6.2-13.6-6.2V65c0,0,7.8,1.2,11.7,4.6   c8.2,7.1,14.8,18.5,14.8,18.5S74.4,75,80.1,70.5C88.1,64.3,95,65,95,65v-4.8C95,60.1,85.1,60.7,78.4,66.5z" fill="#5ca4a9" style=""></path><path d="M42,80c-6.4-3.6-17.8-4.3-17.8-4.3s8.7-10.1,10.5-17C37.5,47.9,36.2,44,36.2,44l-4.6,1.6c0,0,1.3,7.7-0.6,12.4   c-4.1,9.9-13,19.8-13,19.8s14.6,1.3,20.7,5.1c8.6,5.4,10.2,12,10.2,12l4.6-1.6C53.5,93.4,49.7,84.4,42,80z" fill="#5ca4a9" style=""></path><path d="M35.3,36.8c11.3-0.9,14.6-3.4,14.6-3.4l-3-3.8c0,0-6.9,3.7-12.1,3.4c-10.9-0.6-23.3-5.6-23.3-5.6s3.5,14,1.8,20.9   C10.9,58.2,5,61.8,5,61.8l3,3.8c0,0,7.5-6.5,9.1-15.1c1.3-7.1-1.7-18-1.7-18S28,37.4,35.3,36.8z" fill="#5ca4a9" style=""></path><path d="M37.4,17.8c7.3-1.1,16.7-7.4,16.7-7.4s-0.6,13.2,2.4,19.8c4.6,10.2,8,12.5,8,12.5l2.7-4c0,0-5.9-5.2-7.3-10.2   C56.9,18.2,57.7,5,57.7,5s-12.3,7.8-19.5,8.5c-10.2,1-15.6-3.3-15.6-3.3l-2.7,4.1C19.9,14.2,28.6,19.1,37.4,17.8z" fill="#5ca4a9" style=""></path><path d="M65,60.5c0,0,3.1-7.2,7.4-10.1c9-6.1,21.9-9.7,21.9-9.7s-11.5-8.9-14.5-15.4c-4.2-9.1-1.9-15.6-1.9-15.6l-4.8-1.2   c0,0-1.9,9.6,2.2,17.4c3.4,6.4,12.5,13.2,12.5,13.2S75,42.9,69.6,47.8c-8.3,7.6-9.4,11.5-9.4,11.5L65,60.5z" fill="#5ca4a9" style=""></path></g><desc>Created with Snap</desc><defs></defs></g><g><g transform="matrix(0.512,0,0,-0.512,0,0)"><path d="M401 0L171 0L171 1626L401 1626L401 1168L389 967L378 993Q418 1025 480 1056Q542 1087 614 1107Q686 1128 757 1130Q939 1135 1021 1030Q1104 925 1104 681L1104 0L874 0L874 683Q874 820 831 881Q789 942 667 936Q614 935 540 911Q466 887 401 838L401 0ZM1704 -16Q1604 -16 1526 23Q1449 63 1404 135Q1360 208 1360 307Q1360 414 1417 488Q1475 563 1572 605Q1636 631 1711 646Q1786 662 1861 668Q1936 675 2000 675L2048 614L2000 533Q1961 533 1906 527Q1852 522 1799 510Q1746 499 1709 481Q1658 458 1624 422Q1590 386 1590 322Q1590 238 1636 195Q1683 152 1775 152Q1822 152 1870 166Q1918 180 1953 198Q1989 216 2000 229L2046 180L2013 94Q1969 54 1886 19Q1803 -16 1704 -16ZM2231 767L2231 0L2013 0L2013 166L2000 166L2000 780Q2000 878 1948 909Q1897 941 1802 941Q1739 941 1672 928Q1605 916 1549 897Q1493 879 1463 860L1409 1026Q1432 1040 1497 1065Q1563 1090 1650 1110Q1738 1131 1824 1131Q1949 1131 2040 1102Q2132 1073 2181 994Q2231 916 2231 767ZM2870 -16Q2761 -16 2694 18Q2627 52 2592 115Q2557 179 2544 267Q2532 355 2532 462L2532 1114L2762 1114L2762 464Q2762 332 2782 270Q2803 208 2846 190Q2890 172 2960 172Q3001 172 3047 184Q3094 197 3135 214Q3176 232 3200 248L3200 1114L3430 1114L3430 -16L3324 -16Q3278 -16 3251 -3Q3224 11 3224 66L3224 144L3228 100Q3183 70 3122 43Q3062 17 2996 0Q2930 -16 2870 -16ZM4084 -16Q4005 -16 3945 9Q3885 34 3851 97Q3818 161 3818 278L3818 944L3674 944L3674 1068Q3748 1089 3787 1103Q3826 1118 3844 1166Q3852 1188 3862 1218Q3872 1249 3884 1286Q3896 1324 3910 1368L4048 1368L4048 1114L4360 1114L4360 944L4048 944L4048 400Q4048 292 4057 242Q4067 193 4093 179Q4120 166 4172 166Q4200 166 4236 172Q4273 179 4306 189Q4340 199 4358 210L4396 78Q4366 55 4315 33Q4265 12 4204 -2Q4144 -16 4084 -16ZM5046 -16Q4806 -16 4676 136Q4546 288 4546 558Q4546 720 4603 848Q4661 976 4773 1051Q4886 1126 5050 1128Q5134 1130 5208 1104Q5282 1078 5339 1025Q5396 973 5429 893Q5463 813 5466 706Q5466 643 5465 593Q5464 544 5456 506L4680 506L4700 652L5250 652Q5255 732 5240 803Q5226 875 5178 919Q5131 964 5038 964Q4960 964 4898 920Q4836 877 4802 774Q4768 671 4774 492Q4780 366 4825 293Q4870 220 4943 189Q5016 158 5106 158Q5144 158 5199 166Q5254 175 5305 188Q5357 202 5384 218L5428 86Q5391 56 5327 33Q5264 10 5190 -3Q5116 -16 5046 -16ZM6004 544Q6004 709 6064 841Q6124 973 6244 1050Q6364 1128 6544 1128Q6649 1128 6722 1109Q6795 1090 6822 1072L6786 890Q6744 919 6685 933Q6626 948 6542 948Q6467 948 6397 911Q6327 875 6280 795Q6233 715 6228 584Q6224 446 6264 351Q6305 257 6376 208Q6448 160 6536 160Q6619 160 6689 181Q6760 202 6796 224L6840 90Q6789 42 6696 13Q6603 -16 6498 -16Q6339 -16 6229 58Q6119 132 6061 258Q6004 385 6004 544ZM7489 -16Q7353 -16 7258 32Q7163 80 7104 163Q7045 246 7018 353Q6992 461 6993 580Q6996 759 7064 881Q7132 1003 7248 1065Q7364 1128 7509 1128Q7691 1128 7800 1045Q7910 963 7958 827Q8007 692 8005 534Q8002 355 7934 232Q7867 110 7751 47Q7636 -16 7489 -16ZM7495 147Q7632 145 7701 250Q7771 356 7771 543Q7771 659 7743 753Q7715 848 7655 905Q7596 962 7503 963Q7367 966 7298 865Q7229 764 7229 577Q7229 461 7257 364Q7285 267 7344 208Q7403 149 7495 147ZM8582 -16Q8473 -16 8406 18Q8339 52 8304 115Q8269 179 8256 267Q8244 355 8244 462L8244 1114L8474 1114L8474 464Q8474 332 8494 270Q8515 208 8558 190Q8602 172 8672 172Q8713 172 8759 184Q8806 197 8847 214Q8888 232 8912 248L8912 1114L9142 1114L9142 -16L9036 -16Q8990 -16 8963 -3Q8936 11 8936 66L8936 144L8940 100Q8895 70 8834 43Q8774 17 8708 0Q8642 -16 8582 -16ZM9796 -16Q9717 -16 9657 9Q9597 34 9563 97Q9530 161 9530 278L9530 944L9386 944L9386 1068Q9460 1089 9499 1103Q9538 1118 9556 1166Q9564 1188 9574 1218Q9584 1249 9596 1286Q9608 1324 9622 1368L9760 1368L9760 1114L10072 1114L10072 944L9760 944L9760 400Q9760 292 9769 242Q9779 193 9805 179Q9832 166 9884 166Q9912 166 9948 172Q9985 179 10018 189Q10052 199 10070 210L10108 78Q10078 55 10027 33Q9977 12 9916 -2Q9856 -16 9796 -16ZM10644 -16Q10535 -16 10468 18Q10401 52 10366 115Q10331 179 10318 267Q10306 355 10306 462L10306 1114L10536 1114L10536 464Q10536 332 10556 270Q10577 208 10620 190Q10664 172 10734 172Q10775 172 10821 184Q10868 197 10909 214Q10950 232 10974 248L10974 1114L11204 1114L11204 -16L11098 -16Q11052 -16 11025 -3Q10998 11 10998 66L10998 144L11002 100Q10957 70 10896 43Q10836 17 10770 0Q10704 -16 10644 -16ZM11746 818L11732 970Q11747 1001 11795 1038Q11843 1076 11908 1103Q11974 1130 12042 1130Q12080 1130 12107 1127Q12135 1124 12148 1116L12148 900Q12133 908 12102 917Q12072 926 12004 926Q11942 926 11892 908Q11843 891 11806 866Q11769 841 11746 818ZM11758 0L11528 0L11528 1112L11724 1112L11740 970L11758 886L11758 0ZM12780 -16Q12540 -16 12410 136Q12280 288 12280 558Q12280 720 12337 848Q12395 976 12507 1051Q12620 1126 12784 1128Q12868 1130 12942 1104Q13016 1078 13073 1025Q13130 973 13163 893Q13197 813 13200 706Q13200 643 13199 593Q13198 544 13190 506L12414 506L12434 652L12984 652Q12989 732 12974 803Q12960 875 12912 919Q12865 964 12772 964Q12694 964 12632 920Q12570 877 12536 774Q12502 671 12508 492Q12514 366 12559 293Q12604 220 12677 189Q12750 158 12840 158Q12878 158 12933 166Q12988 175 13039 188Q13091 202 13118 218L13162 86Q13125 56 13061 33Q12998 10 12924 -3Q12850 -16 12780 -16Z" fill="#343333" style=""></path></g></g></g></svg>